# xmcd CD database file
#
# Track frame offsets:
#	182
#	10255
#	22415
#	31545
#	42432
#	53247
#	68715
#	83510
#	93460
#	103355
#	118617
#	128217
#	142337
#	149172
#	161855
#	172540
#	182712
#	194252
#	208317
#	217995
#	231565
#	243107
#	255620
#	273427
#	285597
#	294037
#	303405
#	315115
#
# Disc length: 4355 seconds
#
# Revision: 3
# Processed by: cddbd v1.5.2PL0 Copyright (c) Steve Scherf et al.
# Submitted via: CDex 1.70beta2
#
DISCID=9c11011c
DTITLE=Various Artist - The Lonesome Cowboy
DYEAR=1900
DGENRE=Country
TTITLE0=Johnny Cash - Rock Island Line
TTITLE1=Kenny Rogers - Reuben James
TTITLE2=Frankie Lane - Rawhide
TTITLE3=George Jones - Tender Years
TTITLE4=Waylon Jennings - Sally Was A Good Old Girl
TTITLE5=Razzy Bailley - Your Cheating Heart
TTITLE6=Kingston Trio - Tom Dooley
TTITLE7=Freddy Fender - Before The Next Teardrop Falls
TTITLE8=Buck Owens - Rhythm And Booze
TTITLE9=Kenny Rogers - For The Good Times
TTITLE10=Ned Miller - From A Jack To A King
TTITLE11=B. J. Thomas - I´m So Lonesome I Could Cry
TTITLE12=Marty Robbins - Maybellene
TTITLE13=Dolly Parton - Little Blossom
TTITLE14=Roger Miller - King Of The Road
TTITLE15=Johnny Cash - Ballad Of A Teenage Queen
TTITLE16=Kenny Rogers - Me and Bobby Mcgee
TTITLE17=George Jones - A Good Year For The Roses
TTITLE18=Barbara Mandrell - Release Me
TTITLE19=Willie Nelson - The Last Letter
TTITLE20=Dolly Parton - Making Believe
TTITLE21=Frankie Lane - High Noon
TTITLE22=Kenny Vernon - Polk Salad Annie
TTITLE23=Dolly Parton - Two Little Orphans
TTITLE24=Waylon Jennings - Abilene
TTITLE25=Conway Twitty - This Road That I Walk
TTITLE26=Kenny Rogers - Elvira
TTITLE27=Patsy Cline - Walking After Midnight
EXTD=
EXTT0=
EXTT1=
EXTT2=
EXTT3=
EXTT4=
EXTT5=
EXTT6=
EXTT7=
EXTT8=
EXTT9=
EXTT10=
EXTT11=
EXTT12=
EXTT13=
EXTT14=
EXTT15=
EXTT16=
EXTT17=
EXTT18=
EXTT19=
EXTT20=
EXTT21=
EXTT22=
EXTT23=
EXTT24=
EXTT25=
EXTT26=
EXTT27=
PLAYORDER=
